{
  "accessors": [
    {
      "bufferView": 2,
      "componentType": 5126,
      "count": 5874,
      "max": [
        1.7808144092559814,
        0.15000002086162567,
        1.6824913024902344
      ],
      "min": [
        -1.81267249584198,
        -5.5045460612745956e-05,
        -2.4529464244842529
      ],
      "type": "VEC3"
    },
    {
      "bufferView": 2,
      "byteOffset": 70488,
      "componentType": 5126,
      "count": 5874,
      "max": [
        0.99879288673400879,
        1,
        0.99992924928665161
      ],
      "min": [
        -0.9989667534828186,
        -1,
        -0.99933719635009766
      ],
      "type": "VEC3"
    },
    {
      "bufferView": 1,
      "componentType": 5126,
      "count": 5874,
      "max": [
        1,
        0.99999994039535522
      ],
      "min": [
        0,
        0
      ],
      "type": "VEC2"
    },
    {
      "bufferView": 0,
      "componentType": 5125,
      "count": 8013,
      "max": [
        5873
      ],
      "min": [
        0
      ],
      "type": "SCALAR"
    },
    {
      "bufferView": 2,
      "byteOffset": 140976,
      "componentType": 5126,
      "count": 265,
      "max": [
        0.81398659944534302,
        0.48113042116165161,
        1.2224711179733276
      ],
      "min": [
        -0.81398671865463257,
        -0.0069068307057023048,
        -1.0422630310058594
      ],
      "type": "VEC3"
    },
    {
      "bufferView": 2,
      "byteOffset": 144156,
      "componentType": 5126,
      "count": 265,
      "max": [
        0.99929571151733398,
        0.99993455410003662,
        0.99866598844528198
      ],
      "min": [
        -0.99929571151733398,
        -0.999977707862854,
        -0.99996328353881836
      ],
      "type": "VEC3"
    },
    {
      "bufferView": 1,
      "byteOffset": 46992,
      "componentType": 5126,
      "count": 265,
      "max": [
        1,
        1
      ],
      "min": [
        0,
        0
      ],
      "type": "VEC2"
    },
    {
      "bufferView": 0,
      "byteOffset": 32052,
      "componentType": 5125,
      "count": 1008,
      "max": [
        264
      ],
      "min": [
        0
      ],
      "type": "SCALAR"
    },
    {
      "bufferView": 2,
      "byteOffset": 147336,
      "componentType": 5126,
      "count": 544,
      "max": [
        1.6887025833129883,
        0.09010586142539978,
        1.5822052955627441
      ],
      "min": [
        1.0327575206756592,
        0.0098941512405872345,
        0.86105591058731079
      ],
      "type": "VEC3"
    },
    {
      "bufferView": 2,
      "byteOffset": 153864,
      "componentType": 5126,
      "count": 544,
      "max": [
        0.97554320096969604,
        0.99902790784835815,
        0.97062873840332031
      ],
      "min": [
        -0.97554320096969604,
        -0.99902790784835815,
        -0.97062873840332031
      ],
      "type": "VEC3"
    },
    {
      "bufferView": 1,
      "byteOffset": 49112,
      "componentType": 5126,
      "count": 544,
      "max": [
        1,
        1
      ],
      "min": [
        0,
        0
      ],
      "type": "VEC2"
    },
    {
      "bufferView": 0,
      "byteOffset": 36084,
      "componentType": 5125,
      "count": 2304,
      "max": [
        543
      ],
      "min": [
        0
      ],
      "type": "SCALAR"
    },
    {
      "bufferView": 2,
      "byteOffset": 160392,
      "componentType": 5126,
      "count": 2351,
      "max": [
        1.815821647644043,
        0.10004228353500366,
        1.4519935846328735
      ],
      "min": [
        -1.797576904296875,
        -1.862645149230957e-08,
        -2.4359848499298096
      ],
      "type": "VEC3"
    },
    {
      "bufferView": 2,
      "byteOffset": 188604,
      "componentType": 5126,
      "count": 2351,
      "max": [
        0.99876630306243896,
        1,
        0.99997162818908691
      ],
      "min": [
        -0.99999409914016724,
        -1,
        -0.99986588954925537
      ],
      "type": "VEC3"
    },
    {
      "bufferView": 1,
      "byteOffset": 53464,
      "componentType": 5126,
      "count": 2351,
      "max": [
        1,
        1
      ],
      "min": [
        0,
        0
      ],
      "type": "VEC2"
    },
    {
      "bufferView": 0,
      "byteOffset": 45300,
      "componentType": 5125,
      "count": 4398,
      "max": [
        2350
      ],
      "min": [
        0
      ],
      "type": "SCALAR"
    },
    {
      "bufferView": 2,
      "byteOffset": 216816,
      "componentType": 5126,
      "count": 128,
      "max": [
        0.99999970197677612,
        0.56628894805908203,
        1.0015805959701538
      ],
      "min": [
        -0.99999958276748657,
        -0.00083279609680175781,
        -0.99841469526290894
      ],
      "type": "VEC3"
    },
    {
      "bufferView": 2,
      "byteOffset": 218352,
      "componentType": 5126,
      "count": 128,
      "max": [
        0.94157969951629639,
        -0.29683405160903931,
        0.9549291729927063
      ],
      "min": [
        -0.94157969951629639,
        -0.99805253744125366,
        -0.92669391632080078
      ],
      "type": "VEC3"
    },
    {
      "bufferView": 1,
      "byteOffset": 72272,
      "componentType": 5126,
      "count": 128,
      "max": [
        0,
        0
      ],
      "min": [
        0,
        0
      ],
      "type": "VEC2"
    },
    {
      "bufferView": 0,
      "byteOffset": 62892,
      "componentType": 5125,
      "count": 666,
      "max": [
        127
      ],
      "min": [
        0
      ],
      "type": "SCALAR"
    },
    {
      "bufferView": 2,
      "byteOffset": 219888,
      "componentType": 5126,
      "count": 544,
      "max": [
        1.7036582231521606,
        0.091573841869831085,
        1.3519843816757202
      ],
      "min": [
        0.96336889266967773,
        0.0084261726588010788,
        0.68191570043563843
      ],
      "type": "VEC3"
    },
    {
      "bufferView": 2,
      "byteOffset": 226416,
      "componentType": 5126,
      "count": 544,
      "max": [
        0.9789806604385376,
        0.99598604440689087,
        0.9828675389289856
      ],
      "min": [
        -0.9789806604385376,
        -0.99598604440689087,
        -0.9828675389289856
      ],
      "type": "VEC3"
    },
    {
      "bufferView": 1,
      "byteOffset": 73296,
      "componentType": 5126,
      "count": 544,
      "max": [
        1,
        1
      ],
      "min": [
        0,
        0
      ],
      "type": "VEC2"
    },
    {
      "bufferView": 0,
      "byteOffset": 65556,
      "componentType": 5125,
      "count": 2304,
      "max": [
        543
      ],
      "min": [
        0
      ],
      "type": "SCALAR"
    },
    {
      "bufferView": 2,
      "byteOffset": 232944,
      "componentType": 5126,
      "count": 936,
      "max": [
        0.99039274454116821,
        1,
        0.99039274454116821
      ],
      "min": [
        -0.99039280414581299,
        -1,
        -0.99039280414581299
      ],
      "type": "VEC3"
    },
    {
      "bufferView": 2,
      "byteOffset": 244176,
      "componentType": 5126,
      "count": 936,
      "max": [
        1,
        1,
        1
      ],
      "min": [
        -1,
        -1,
        -1
      ],
      "type": "VEC3"
    },
    {
      "bufferView": 1,
      "byteOffset": 77648,
      "componentType": 5126,
      "count": 936,
      "max": [
        0.99999994039535522,
        1
      ],
      "min": [
        0,
        0
      ],
      "type": "VEC2"
    },
    {
      "bufferView": 0,
      "byteOffset": 74772,
      "componentType": 5125,
      "count": 1488,
      "max": [
        935
      ],
      "min": [
        0
      ],
      "type": "SCALAR"
    },
    {
      "bufferView": 3,
      "componentType": 5126,
      "count": 27,
      "max": [
        2.5
      ],
      "min": [
        0.041666667908430099
      ],
      "type": "SCALAR"
    },
    {
      "bufferView": 4,
      "componentType": 5126,
      "count": 27,
      "max": [
        0.7071068286895752,
        0.10080503672361374,
        0.10080503672361374,
        0.70710670948028564
      ],
      "min": [
        0.69988453388214111,
        0,
        -0,
        0.69988453388214111
      ],
      "type": "VEC4"
    },
    {
      "bufferView": 3,
      "byteOffset": 108,
      "componentType": 5126,
      "count": 30,
      "max": [
        2.5
      ],
      "min": [
        0.041666667908430099
      ],
      "type": "SCALAR"
    },
    {
      "bufferView": 4,
      "byteOffset": 432,
      "componentType": 5126,
      "count": 30,
      "max": [
        -0.58028775453567505,
        -0.31799238920211792,
        0.40406200289726257,
        0.63157016038894653
      ],
      "min": [
        -0.63157010078430176,
        -0.4040619432926178,
        0.31799235939979553,
        0.58028781414031982
      ],
      "type": "VEC4"
    }
  ],
  "animations": [
    {
      "channels": [
        {
          "sampler": 0,
          "target": {
            "node": 4,
            "path": "rotation"
          }
        },
        {
          "sampler": 1,
          "target": {
            "node": 10,
            "path": "rotation"
          }
        }
      ],
      "name": "Animation",
      "samplers": [
        {
          "input": 28,
          "interpolation": "LINEAR",
          "output": 29
        },
        {
          "input": 30,
          "interpolation": "LINEAR",
          "output": 31
        }
      ]
    }
  ],
  "asset": {
    "extras": {
      "author": "DUCK_ (https://sketchfab.com/DUCK_THE_KILLER)",
      "license": "CC-BY-4.0 (http://creativecommons.org/licenses/by/4.0/)",
      "source": "https://sketchfab.com/3d-models/barbers-scissors-8b9086eed6a048f8967044fa92a65c4a",
      "title": "Barber's scissors"
    },
    "generator": "Sketchfab-9.54.0",
    "version": "2.0"
  },
  "bufferViews": [
    {
      "buffer": 0,
      "byteLength": 80724,
      "byteOffset": 0,
      "name": "floatBufferViews",
      "target": 34963
    },
    {
      "buffer": 0,
      "byteLength": 85136,
      "byteOffset": 80724,
      "byteStride": 8,
      "name": "floatBufferViews",
      "target": 34962
    },
    {
      "buffer": 0,
      "byteLength": 255408,
      "byteOffset": 165860,
      "byteStride": 12,
      "name": "floatBufferViews",
      "target": 34962
    },
    {
      "buffer": 0,
      "byteLength": 228,
      "byteOffset": 421268,
      "name": "floatBufferViews"
    },
    {
      "buffer": 0,
      "byteLength": 912,
      "byteOffset": 421496,
      "byteStride": 16,
      "name": "floatBufferViews"
    }
  ],
  "buffers": [
    {
      "byteLength": 422408,
      "uri": "scene.bin"
    }
  ],
  "materials": [
    {
      "doubleSided": true,
      "name": "Scene_-_Root",
      "pbrMetallicRoughness": {
        "baseColorFactor": [
          1,
          1,
          1,
          1
        ],
        "metallicFactor": 0,
        "roughnessFactor": 0.59999999999999998
      }
    }
  ],
  "meshes": [
    {
      "primitives": [
        {
          "attributes": {
            "NORMAL": 1,
            "POSITION": 0,
            "TEXCOORD_0": 2
          },
          "indices": 3,
          "material": 0,
          "mode": 4
        }
      ]
    },
    {
      "primitives": [
        {
          "attributes": {
            "NORMAL": 5,
            "POSITION": 4,
            "TEXCOORD_0": 6
          },
          "indices": 7,
          "material": 0,
          "mode": 4
        }
      ]
    },
    {
      "primitives": [
        {
          "attributes": {
            "NORMAL": 9,
            "POSITION": 8,
            "TEXCOORD_0": 10
          },
          "indices": 11,
          "material": 0,
          "mode": 4
        }
      ]
    },
    {
      "primitives": [
        {
          "attributes": {
            "NORMAL": 13,
            "POSITION": 12,
            "TEXCOORD_0": 14
          },
          "indices": 15,
          "material": 0,
          "mode": 4
        }
      ]
    },
    {
      "primitives": [
        {
          "attributes": {
            "NORMAL": 17,
            "POSITION": 16,
            "TEXCOORD_0": 18
          },
          "indices": 19,
          "material": 0,
          "mode": 4
        }
      ]
    },
    {
      "primitives": [
        {
          "attributes": {
            "NORMAL": 21,
            "POSITION": 20,
            "TEXCOORD_0": 22
          },
          "indices": 23,
          "material": 0,
          "mode": 4
        }
      ]
    },
    {
      "primitives": [
        {
          "attributes": {
            "NORMAL": 25,
            "POSITION": 24,
            "TEXCOORD_0": 26
          },
          "indices": 27,
          "material": 0,
          "mode": 4
        }
      ]
    }
  ],
  "nodes": [
    {
      "children": [
        1
      ],
      "name": "RootNode (gltf orientation matrix)",
      "rotation": [
        -0.70710678118654746,
        -0,
        -0,
        0.70710678118654757
      ]
    },
    {
      "children": [
        2
      ],
      "name": "RootNode (model correction matrix)"
    },
    {
      "children": [
        3
      ],
      "name": "root"
    },
    {
      "children": [
        4,
        10,
        16
      ],
      "matrix": [
        1,
        0,
        0,
        0,
        0,
        2.2204460492503131e-16,
        1,
        0,
        0,
        -1,
        2.2204460492503131e-16,
        0,
        0,
        0,
        0,
        1
      ],
      "name": "GLTF_SceneRootNode"
    },
    {
      "children": [
        5,
        6,
        8
      ],
      "name": "BladeA_2",
      "rotation": [
        0.7071068286895752,
        0,
        0,
        0.7071068286895752
      ],
      "translation": [
        0,
        0.025000004097819328,
        -0.025000002235174179
      ]
    },
    {
      "mesh": 0,
      "name": ""
    },
    {
      "children": [
        7
      ],
      "matrix": [
        3.5408653999115274e-10,
        -0.056217666715383516,
        -1.1305458127009506e-09,
        0,
        0.82133768190543988,
        -6.2984921722630816e-09,
        0.57044229531320534,
        0,
        -0.048720931795476083,
        -1.7175888757804616e-09,
        0.070149667214276443,
        0,
        1.6889873743057251,
        0.05000000074505806,
        1.5106383562088013,
        1
      ],
      "name": "Handle_0"
    },
    {
      "mesh": 1,
      "name": ""
    },
    {
      "children": [
        9
      ],
      "name": "PaddingA_1"
    },
    {
      "mesh": 2,
      "name": ""
    },
    {
      "children": [
        11,
        12,
        14
      ],
      "name": "BladeB_5",
      "rotation": [
        -0.58080315589904785,
        -0.40332084894180298,
        0.40332081913948059,
        0.58080315589904785
      ],
      "scale": [
        -1,
        -1,
        -1
      ],
      "translation": [
        0,
        0.025000004097819328,
        -0.025000002235174179
      ]
    },
    {
      "mesh": 3,
      "name": ""
    },
    {
      "children": [
        13
      ],
      "matrix": [
        -9.9875141656315452e-10,
        -0.030624557286500827,
        -2.3804237175779973e-09,
        -0,
        -0.12402786108671025,
        -5.7732579469148663e-09,
        0.12631216399232473,
        -0,
        0.052675109897755576,
        -5.7382319238698593e-09,
        0.051722502462415082,
        -0,
        1.026555061340332,
        0.050181932747364044,
        1.3338234424591064,
        1
      ],
      "name": "damper_3"
    },
    {
      "mesh": 4,
      "name": ""
    },
    {
      "children": [
        15
      ],
      "name": "PaddingB_4"
    },
    {
      "mesh": 5,
      "name": ""
    },
    {
      "children": [
        17
      ],
      "matrix": [
        0.10000002384185791,
        0,
        0,
        0,
        0,
        0,
        0.078763343393802643,
        0,
        0,
        -0.10000002384185791,
        0,
        0,
        0,
        0.024999998509883881,
        0.05000000074505806,
        1
      ],
      "name": "Screw_6"
    },
    {
      "mesh": 6,
      "name": ""
    }
  ],
  "scene": 0,
  "scenes": [
    {
      "name": "OSG_Scene",
      "nodes": [
        0
      ]
    }
  ]
}

